<svg width="536" height="721" viewBox="0 0 536 721" fill="none" xmlns="http://www.w3.org/2000/svg">
<g clip-path="url(#clip0_765_60)" filter="url(#filter0_d_765_60)">
<path d="M382.193 378.49C468.711 291.906 468.711 151.525 382.193 64.9412C295.676 -21.6431 155.404 -21.6431 68.8867 64.9412C-17.6305 151.525 -17.6305 291.906 68.8867 378.49C155.404 465.075 295.676 465.075 382.193 378.49Z" fill="#F5F5F5"/>
<path d="M398.223 681.996C397.639 681.89 338.3 670.502 279.813 645.138C202.184 611.473 161.296 568.514 161.562 520.907C161.952 449.55 253.671 441.462 342.359 433.622C398.294 428.691 456.126 423.583 489.428 402.511C509.899 389.563 522.66 371.631 527.303 349.229C539.497 290.518 493.345 216.59 478.918 195.341L480.336 194.383C494.87 215.792 541.323 290.217 528.987 349.583C524.237 372.464 511.228 390.751 490.35 403.966C456.711 425.25 398.666 430.376 342.519 435.325C254.592 443.094 163.653 451.111 163.281 520.907C162.962 580.114 226.855 620.288 280.504 643.56C338.814 668.853 397.958 680.187 398.542 680.293L398.223 681.996Z" fill="url(#paint0_linear_765_60)"/>
<path d="M379.667 105.448C399.73 133.225 449.533 190.303 449.533 190.303C493.469 186.809 530.76 169.32 530.76 169.32L532 165.081C505.362 125.101 458.271 76.3594 458.271 76.3594C419.332 84.891 380.394 102.22 380.394 102.22L379.667 105.448Z" fill="url(#paint1_linear_765_60)"/>
<path d="M477.058 186.33C477.058 186.33 482.534 196.99 481.701 197.966C480.868 198.941 471.812 187.341 471.812 187.341L477.058 186.33Z" fill="url(#paint2_linear_765_60)"/>
<path d="M379.667 105.448C434.131 82.6029 458.005 79.6408 458.005 79.6408C487.727 108.677 530.742 169.32 530.742 169.32L531.982 165.081C505.344 125.101 458.253 76.3594 458.253 76.3594C419.314 84.891 380.376 102.22 380.376 102.22L379.667 105.448Z" fill="url(#paint3_linear_765_60)"/>
<path opacity="0.5" d="M492.087 118.273L445.066 185.124L449.55 190.304C449.55 190.304 490.102 187.643 530.777 169.32L532.018 165.081C532.018 165.081 508.197 132.143 493.753 115.63L492.087 118.273Z" fill="url(#paint4_linear_765_60)"/>
<path d="M224.639 707.023C223.009 709.311 217.408 711.635 210.833 709.968C204.275 708.336 195.732 704.398 188.2 681.712C180.632 659.062 179.657 648.863 179.657 648.863C181.288 644.251 185.736 638.664 185.736 638.664C188.873 634.212 217.993 643.418 217.993 643.418C217.993 643.418 218.72 647.036 219.819 653.049V653.12C220.811 658.601 222.052 666.068 223.328 674.6C225.933 692.443 226.27 704.7 224.639 707.023Z" fill="#542A8D"/>
<path opacity="0.97" d="M224.639 707.023C223.009 709.311 217.408 711.635 210.833 709.968C204.275 708.336 195.732 704.398 188.2 681.712C180.632 659.062 179.657 648.863 179.657 648.863C181.288 644.251 185.736 638.664 185.736 638.664C188.873 634.212 217.993 643.418 217.993 643.418C217.993 643.418 218.72 647.036 219.819 653.049V653.12C219.819 653.12 201.599 651.967 194.013 656.898C186.392 661.847 194.456 694.536 202.662 702.27C210.833 709.95 224.639 707.023 224.639 707.023Z" fill="url(#paint5_linear_765_60)"/>
<path d="M352.019 653.12C352.019 653.12 358.381 648.242 360.225 644.571C362.068 640.917 360.756 634.39 360.756 634.39L352.019 637.44L346.772 642.921L352.019 653.12Z" fill="#542A8D"/>
<path d="M332.842 663.39L334.933 667.576C334.933 667.576 346.755 659.363 355.953 654.432V638.664C355.953 638.664 339.612 639.817 332.842 663.39Z" fill="url(#paint6_linear_765_60)"/>
<path d="M360.225 644.589V639.338C342.802 644.589 331.318 665.944 331.318 665.944C331.318 665.944 320.825 654.451 319.833 648.757C318.84 643.081 320.169 639.001 319.833 635.72C319.496 632.421 306.363 601.54 305.388 591.04C304.396 580.54 307.71 564.736 305.388 546.36C303.102 527.966 286.016 473.034 286.016 473.034C286.016 473.034 281.408 473.425 274.266 479.987C273.663 480.537 272.99 481.264 272.298 482.169C264.163 492.084 247.999 522.308 237.755 547.016C226.607 573.959 218.703 618.001 219.376 623.57C220.032 629.157 227.245 631.782 225.934 635.401C224.64 639.019 209.54 653.475 195.733 647.231C186.641 643.099 181.093 632.226 178.399 624.581C177.017 620.661 176.379 617.557 176.379 616.67C176.379 614.045 179.994 611.083 181.625 609.132C181.909 608.795 182.121 607.979 182.281 606.773C183.078 600.92 182.777 585.878 183.61 571.99C184.603 555.246 194.102 541.429 198.055 532.56C201.972 523.692 203.957 500.704 205.587 470.817C207.218 440.912 215.122 424.381 215.122 424.381L220.369 418.244C220.369 418.244 242.363 424.488 274.266 426.439C306.203 428.408 319.496 418.244 319.496 418.244L328.694 424.381C328.694 424.381 330.91 432.398 333.71 443.945C338.283 462.569 344.415 490.452 345.425 508.917C347.056 538.804 352.993 587.776 355.616 610.781C358.239 633.769 362.848 635.418 362.848 635.418C363.84 639.001 360.225 644.589 360.225 644.589Z" fill="url(#paint7_linear_765_60)"/>
<path d="M395.335 710.536C394.041 712.079 389.433 715.236 376.955 710.536C364.478 705.835 357.903 701.436 344.38 695.193C330.839 688.949 326.054 681.713 326.054 681.713C327.684 671.549 332.806 663.408 332.806 663.408C338.035 665.182 344.38 661.333 344.38 661.333C350.548 654.752 368.732 647.232 370.362 649.857C371.993 652.482 367.084 663.408 367.084 663.408C376.069 674.352 394.484 705.392 395.335 710.021C395.423 710.27 395.423 710.447 395.335 710.536Z" fill="#542A8D"/>
<path opacity="0.97" d="M225.934 635.383C224.64 639.002 209.54 653.457 195.733 647.214C186.641 643.081 181.093 632.208 178.399 624.563C181.696 629.069 187.208 634.372 196.229 638.665C215.92 648.03 225.934 635.383 225.934 635.383Z" fill="url(#paint8_linear_765_60)"/>
<path opacity="0.97" d="M360.224 644.589V639.339C342.802 644.589 331.317 665.944 331.317 665.944C331.317 665.944 320.825 654.451 319.832 648.757C318.84 643.081 320.169 639.002 319.832 635.72C319.496 632.421 306.362 601.541 305.388 591.04C304.395 580.54 307.709 564.736 305.388 546.36C303.101 527.967 286.016 473.035 286.016 473.035C286.016 473.035 281.408 473.425 274.265 479.988C273.663 480.537 272.989 481.265 272.298 482.169C272.298 482.169 262.213 445.985 240.041 449.941C217.905 453.861 208.334 506.611 204.984 525.342C201.652 544.072 188.891 561.809 185.878 578.553C182.936 594.871 189.937 616.812 190.291 617.93L182.263 606.738C183.06 600.884 182.759 585.843 183.592 571.955C184.584 555.211 194.084 541.394 198.037 532.525C201.953 523.657 203.939 500.669 205.569 470.782C207.2 440.877 215.104 424.346 215.104 424.346L220.35 418.209C220.35 418.209 242.345 424.452 274.248 426.404C306.185 428.372 319.478 418.209 319.478 418.209L328.676 424.346C328.676 424.346 330.892 432.363 333.692 443.91C332.629 444.637 307.94 461.417 305.051 473.017C302.091 484.901 317.652 551.93 315.791 559.823C313.913 567.698 308.773 604.875 322.774 631.268C322.774 631.268 328.357 618.71 333.692 612.431C333.231 613.726 325.716 634.496 323.767 643.755C321.746 653.333 329.669 657.874 329.669 657.874C329.669 657.874 348.225 636.518 362.829 635.365C363.84 639.002 360.224 644.589 360.224 644.589Z" fill="url(#paint9_linear_765_60)"/>
<path d="M170.105 330.533C170.105 330.533 127.125 310.437 119.575 266.076C119.575 266.076 140.914 245.377 153.055 241.759C165.195 238.14 181.944 243.231 181.944 243.231L183.911 272.001L170.105 330.533Z" fill="url(#paint10_linear_765_60)"/>
<path d="M181.696 424.523C181.696 424.523 195.981 415.903 199.42 409.252C199.42 409.252 173.49 346.657 169.343 327.448C169.343 327.448 129.731 307.05 124.077 262.796L147.968 247.861L142.297 245.396C142.297 245.396 118.175 257.226 102.401 276.453C102.401 276.453 118.282 333.869 140.631 370.585V385.608C140.649 385.59 159.79 416.648 181.696 424.523Z" fill="url(#paint11_linear_765_60)"/>
<path d="M162.501 282.093L159.789 289.986C159.789 289.986 120.142 271.504 70.41 230.354C70.41 230.354 66.9539 212.865 80.0161 201.034C80.0161 201.034 105.378 185.514 153.888 180.583L213.899 235.285L165.106 257.58C165.089 257.58 162.572 273.207 162.501 282.093Z" fill="url(#paint12_linear_765_60)"/>
<path opacity="0.62" d="M77.5878 203.482C77.5878 203.482 126.629 246.176 157.981 262.778L201.705 247.329L199.419 265.58L159.789 289.987C159.789 289.987 104.634 260.756 70.4098 230.354C70.4098 230.354 66.8119 217.779 77.5878 203.482Z" fill="url(#paint13_linear_765_60)"/>
<path d="M181.696 424.523C181.696 424.523 232.668 411.663 254.096 401.695C254.096 401.695 256.01 304.868 252.962 285.339C249.913 265.81 230.949 230.336 230.949 230.336C230.949 230.336 192.79 238.655 167.18 259.514C167.18 259.514 164.415 296.638 172.338 338.018C176.928 362.035 191.869 388.924 195.414 407.034C196.796 409.003 183.911 419.627 181.696 424.523Z" fill="url(#paint14_linear_765_60)"/>
<path d="M165.089 324.893C165.089 324.893 159.063 287.184 165.089 257.581C165.089 257.581 171.363 251.124 186.747 244.225L193.925 243.231C193.925 243.231 173.987 253.235 168.971 258.681C168.971 258.681 167.11 300.008 170.087 330.516L165.089 324.893Z" fill="url(#paint15_linear_765_60)"/>
<path d="M292.113 432.664C292.113 432.664 348.722 420.319 362.51 394.121C362.51 394.121 357.264 367.267 297.182 368.26C237.099 369.254 292.113 432.664 292.113 432.664Z" fill="url(#paint16_linear_765_60)"/>
<path d="M22.3796 368.261C22.3796 368.261 13.2698 358.807 14.7408 352.741C16.2119 346.657 24.3469 341.744 30.497 343.712C36.647 345.681 40.7589 352.741 40.7589 352.741L22.3796 368.261Z" fill="url(#paint17_linear_765_60)"/>
<path d="M73.9375 436.602C73.9375 436.602 87.2833 444.495 88.6302 443.874C89.9772 443.253 85.9185 426.918 85.9185 426.918L79.6444 423.051L73.3703 426.013L72.75 432.168L73.9375 436.602Z" fill="url(#paint18_linear_765_60)"/>
<path d="M25.2861 368.26L73.9371 436.602V431.352L78.3679 430.199L79.52 426.261L85.9181 426.917L62.6118 391.922L40.936 358.931C40.936 358.931 28.4941 360.048 25.2861 368.26Z" fill="url(#paint19_linear_765_60)"/>
<path d="M82.7812 441.533C82.7812 441.533 84.6422 437.666 88.311 437.968C88.311 437.968 89.5871 443.591 88.8958 444.424C88.2223 445.222 82.7812 441.533 82.7812 441.533Z" fill="url(#paint20_linear_765_60)"/>
<path d="M28.9729 373.44L22.3975 368.26C22.3975 368.26 24.0457 354.957 40.7767 352.74L43.4352 362.744C43.4352 362.726 35.2293 361.538 28.9729 373.44Z" fill="url(#paint21_linear_765_60)"/>
<path d="M402.247 180.973C402.247 180.973 409.141 175.723 409.141 172.761C409.141 169.799 403.558 163.928 402.247 156.851C400.935 149.774 402.902 139.912 400.935 135.141C398.968 130.369 397.461 126.591 399.056 125.616C400.652 124.622 407.05 126.414 409.265 130.6C411.481 134.786 411.197 139.291 410.701 143.229C410.205 147.166 417.719 147.415 421.778 152.097C425.837 156.78 426.333 161.214 426.333 161.214L438.899 177.976C438.899 177.976 433.227 182.038 428.442 184.751C423.639 187.465 409.85 203.482 409.85 203.482L402.247 180.973Z" fill="url(#paint22_linear_765_60)"/>
<path d="M81.9838 333.159C81.9838 333.159 80.3355 374.504 95.9321 377.466C95.9321 377.466 105.609 362.673 104.138 345.929C102.667 329.168 93.1141 328.494 93.1141 328.494C93.1141 328.494 84.9259 325.798 81.9838 333.159Z" fill="url(#paint23_linear_765_60)"/>
<path d="M91.661 326.206C91.661 326.206 73.2818 338.693 57.5256 353.149C57.5256 353.149 46.0408 359.712 35.8498 369.254C25.6765 378.779 25.0208 385.36 25.3398 387.985C25.6765 390.61 28.2996 391.266 28.2996 391.266C28.2996 391.266 28.2996 398.503 31.2594 403.097C34.2192 407.691 36.6828 406.875 36.6828 406.875C36.6828 406.875 37.9943 412.622 41.1137 414.927C44.233 417.233 47.1928 416.08 47.1928 416.08C47.1928 416.08 50.4717 421.011 55.3988 420.674C60.3259 420.337 61.1412 418.209 61.1412 418.209L56.7103 412.125C56.7103 412.125 57.4724 400.507 67.3267 398.201L70.9954 404.569C70.9954 404.569 81.3459 394.547 82.3207 387.648C83.3132 380.748 80.3534 370.567 80.6724 368.917C81.0092 367.268 94.6208 360.208 101.356 358.736C101.338 358.736 95.5956 329.984 91.661 326.206Z" fill="url(#paint24_linear_765_60)"/>
<path d="M266.84 429.206C266.84 429.206 299.735 437.099 311.946 429.206C324.158 421.313 311.946 407.034 311.946 407.034L286.513 396.676L274.266 414.697L266.84 429.206Z" fill="url(#paint25_linear_765_60)"/>
<path d="M229.496 257.208L233.821 265.58C233.821 265.58 248.921 276.914 259.75 274.449C270.579 271.983 264.677 266.006 264.677 266.006C264.677 266.006 258.704 263.7 256.773 254.281C254.823 244.881 229.496 257.208 229.496 257.208Z" fill="url(#paint26_linear_765_60)"/>
<path d="M284.864 61.3184C284.864 61.3184 296.189 65.0077 300.62 86.1859C305.051 107.382 292.733 113.785 292.733 113.785L279.76 81.7516L284.864 61.3184Z" fill="url(#paint27_linear_765_60)"/>
<path d="M165.39 205.078C165.39 205.078 156.28 201.477 145.752 207.348C135.225 213.219 134.108 224.855 137.44 232.624C140.772 240.393 149.581 249.261 165.39 253.146C181.217 257.03 192.702 250.538 192.223 242.131C191.745 233.724 165.39 205.078 165.39 205.078Z" fill="url(#paint28_linear_765_60)"/>
<path d="M280.77 251.958C267.637 258.982 245.678 260.613 228.468 258.911C220.67 258.13 213.864 256.693 209.256 254.742C194.492 248.499 186.534 238.832 175.032 221.077C167.216 209.016 155.908 190.818 148.517 174.446C145.079 166.766 142.492 159.494 141.552 153.41C140.365 145.676 140.01 135.885 142.35 125.42C142.97 122.671 143.785 119.886 144.796 117.066C147.543 109.439 151.885 101.724 158.46 94.3804C163.068 89.2543 168.722 84.3411 175.688 79.7827C217.09 52.7512 258.722 57.1323 279.76 81.7515C300.762 106.388 302.393 129.074 304.378 149.774C305.264 158.908 307.727 165.844 310.386 172.247C313.736 180.317 317.334 187.483 318.255 197.008C319.921 214.106 299.805 241.759 280.77 251.958Z" fill="url(#paint29_linear_765_60)"/>
<path d="M310.404 172.247C310.404 172.247 291.919 176.947 284.386 182.233C284.386 182.233 274.638 174.074 271.306 143.53C271.306 143.53 267.301 119.851 249.577 111.639C231.854 103.444 222.318 124.356 222.318 124.356C222.318 124.356 237.738 169.799 237.915 191.492C237.915 191.492 220.688 200.289 196.814 206.852C196.814 206.852 187.386 199.846 177.195 183.51C177.195 183.51 181.785 220.563 193.943 236.917C203.868 250.291 222.177 256.889 228.486 258.875C220.688 258.095 213.882 256.658 209.274 254.707C194.51 248.464 186.553 238.797 175.05 221.042C167.234 208.981 155.926 190.782 148.536 174.411L142.368 125.403L141.925 121.838L144.814 117.049L158.479 94.3628C163.087 89.2368 168.74 84.3236 175.706 79.7651C217.108 52.7336 258.74 57.1147 279.778 81.7339C300.78 106.371 302.411 129.057 304.396 149.756C305.282 158.908 307.746 165.844 310.404 172.247Z" fill="url(#paint30_linear_765_60)"/>
<path d="M252.856 22.6158C252.856 22.6158 251.42 22.6158 248.903 22.7755C250.109 22.5804 251.42 22.5094 252.856 22.6158Z" fill="url(#paint31_linear_765_60)"/>
<path d="M284.882 47.2703C284.882 47.2703 297.182 60.5555 290.784 77.3171C286.388 88.8463 277.314 95.48 272.103 98.4954C272.085 98.5131 272.05 98.5131 272.032 98.5486C271.819 98.6727 271.642 98.7791 271.43 98.8856C270.667 99.2935 269.994 99.6483 269.48 99.8966C269.161 100.056 268.86 100.18 268.541 100.305C268.434 100.375 268.31 100.411 268.168 100.464C280.912 92.0922 273.06 80.2792 273.06 80.2792C273.06 80.2792 264.695 90.6378 232.668 89.1478C200.677 87.6579 174.553 88.6512 158.301 107.382C142.048 126.112 146.479 137.943 146.479 137.943C146.479 137.943 155.376 149.774 160.286 167.511C165.195 185.248 164.008 200.023 164.008 200.023L169.644 212.563C155.341 197.008 127.781 180.796 124.342 166.021C123.58 162.74 123.439 159.228 123.687 155.751C124.537 144.044 129.713 132.657 130.191 131.611L130.209 131.593V131.575C117.413 140.337 107.594 135.974 107.594 135.974C107.594 135.974 125.813 132.515 135.774 120.702C136.66 119.638 137.546 118.521 138.379 117.35V117.332C146.975 105.466 152.913 89.1656 152.913 89.1656C156.103 81.4676 157.432 72.1201 174.801 55.0392C174.801 55.0392 174.819 55.0215 174.854 54.986C175.811 54.0282 176.822 53.0526 177.903 52.0416C177.903 52.0239 177.92 51.9884 177.956 52.0239L178.169 51.811C178.186 51.7933 178.186 51.7933 178.186 51.7933C180.242 49.8954 182.475 47.8911 184.921 45.8159C206.881 27.0144 237.95 23.467 248.885 22.793C243.923 23.5557 241.069 26.0921 241.069 26.0921C249.647 30.8457 245.766 40.7075 245.536 41.3283C246.475 40.6543 265.102 27.2627 280.469 33.9674C296.225 40.8672 297.199 60.5732 297.199 60.5732C294.24 48.2281 284.882 47.2703 284.882 47.2703Z" fill="url(#paint32_linear_765_60)"/>
<path d="M177.194 150.093C177.194 150.093 180.26 136.701 191.639 126.769C205.41 114.743 216.434 106.406 216.434 106.406C216.434 106.406 215.938 116.924 210.692 125.456C210.692 125.456 199.863 130.05 192.312 135.318C184.745 140.568 177.194 150.093 177.194 150.093Z" fill="url(#paint33_linear_765_60)"/>
<path d="M270.738 131.328C270.738 131.328 273.042 115.808 282.897 109.688C292.751 103.569 300.372 120.934 300.372 120.934L300.833 122.92C300.833 122.92 297.164 116.074 287.558 117.564C277.969 119.053 270.738 131.328 270.738 131.328Z" fill="url(#paint34_linear_765_60)"/>
<path d="M186.747 183.528C186.747 183.528 184.372 174.694 190.557 163.821C199.171 148.674 219.854 148.904 219.854 148.904V154.935C219.872 154.935 190.079 171.697 186.747 183.528Z" fill="#77485E"/>
<path d="M276.907 163.414C276.907 163.414 274.532 156.159 276.783 148.656C279.494 139.628 286.424 133.456 295.463 131.327C295.463 131.327 298.122 135.141 297.98 139.007C297.838 142.874 276.907 163.414 276.907 163.414Z" fill="#77485E"/>
<path d="M198.941 203.979C202.078 205.433 211.915 198.569 219.376 195.359C227.582 191.829 232.172 191.173 233.413 189.683C234.636 188.211 234.158 165.525 217.905 152.719C217.905 152.719 194.634 151.867 186.995 176.007C186.995 176.007 184 197.079 198.941 203.979Z" fill="url(#paint35_linear_765_60)"/>
<path d="M285.804 178.455C282.578 179.838 275.684 168.008 276.34 155.024C276.995 142.04 290.696 135.141 295.056 135.141C295.056 135.141 307.852 148.781 306.221 170.952C306.221 170.952 302.942 169.143 297.2 171.644C291.706 174.038 287.204 177.834 285.804 178.455Z" fill="url(#paint36_linear_765_60)"/>
<path d="M218.384 409.34C218.384 409.34 218.88 416.896 210.993 420.834C210.993 420.834 234.14 443.999 274.036 444.496C274.036 444.496 283.89 428.887 290.288 409.34C290.288 409.34 303.581 422.324 305.069 444.496C305.069 444.496 326.249 433.658 337.574 415.424C337.574 415.424 329.209 388.322 318.38 366.629C307.551 344.937 247.911 375.994 247.911 375.994C247.911 375.994 221.007 401.66 218.384 409.34Z" fill="url(#paint37_linear_765_60)"/>
<path d="M256.773 196.068C256.773 196.068 263.472 197.008 268.257 198.888C273.007 200.804 276.729 199.686 276.729 199.686C284.138 194.809 287.328 189.168 286.353 185.869C286.123 185.053 285.644 184.344 284.9 183.865C281.196 181.382 275.542 179.909 275.542 179.909C267.212 176.557 255.603 182.499 254.965 186.525C254.539 189.133 255.426 192.325 256.064 194.276C256.471 195.358 256.773 196.068 256.773 196.068Z" fill="url(#paint38_linear_765_60)"/>
<path d="M256.772 196.068C256.772 196.068 263.472 197.008 268.257 198.888C273.007 200.804 276.729 199.686 276.729 199.686C284.137 194.809 287.328 189.168 286.353 185.869C286.353 185.869 283.482 189.08 274.549 190.977C266.644 192.645 259.643 192.769 256.081 194.277C256.471 195.359 256.772 196.068 256.772 196.068Z" fill="url(#paint39_linear_765_60)"/>
<path d="M266.839 198.374C266.839 198.374 262.302 193.691 256.772 196.05C256.772 196.068 262.107 196.937 266.839 198.374Z" fill="#9F4A8B"/>
<path d="M370.734 244.065C347.765 257.847 299.486 299.263 299.486 299.263C299.486 299.263 301.223 303.219 304.129 309.143C309.181 319.395 317.652 335.571 326.408 347.225C337.29 361.787 354.375 376.562 360.88 384.26C361.536 385.023 362.05 385.715 362.457 386.318C363.184 387.364 363.556 388.198 363.503 388.765C363.503 388.783 363.503 388.783 363.503 388.819C363.166 393.182 362.51 394.122 362.51 394.122C363.503 388.765 341.508 370.886 291.315 381.741C241.122 392.561 218.383 409.34 218.383 409.34L217.054 412.959C217.054 412.959 215.991 411.575 215.051 409.908C214.289 408.525 213.616 406.91 213.775 405.722C213.881 404.888 214.537 404.037 215.335 403.257C216.965 401.696 219.358 400.401 219.801 400.153C219.819 400.153 219.819 400.135 219.854 400.135C219.854 400.135 227.227 384.366 227.546 361.344C227.883 338.356 222.974 329.825 222.974 329.825C217.391 326.206 169.112 338.693 149.102 343.943C133.328 348.076 114.506 357.707 105.768 364.838C105.768 364.856 105.751 364.856 105.715 364.891C103.376 366.789 101.763 368.527 101.142 369.911C100.983 370.283 100.823 370.62 100.682 370.922C98.1649 376.207 96.1799 377.325 95.9317 377.431C95.9317 377.431 95.9317 377.431 95.9317 377.413C100.168 363.915 95.595 335.412 89.3563 329.842C88.4702 329.044 86.8928 329.665 81.9479 333.177C81.6821 329.488 84.4115 326.88 84.4115 326.88C89.9944 322.925 104.12 315.724 138.273 304.194C172.409 292.701 197.044 281.544 210.266 272.338C223.523 263.15 232.349 262.796 232.349 262.796C232.349 262.796 233.023 263.399 234.228 264.25C237.95 266.964 246.758 272.374 256.613 271.54C269.693 270.387 260.618 262.796 260.618 262.796C260.618 262.796 264.677 261.182 268.931 259.55C273.202 257.936 285.36 256.588 301.099 248.021C302.658 247.169 304.324 246.176 306.097 245.059C322.03 234.806 344.858 214.054 354.624 204.015C365.47 192.822 394.023 183.564 394.023 183.564C396.965 174.926 400.917 176.079 400.917 176.079C412.065 187.271 412.739 214.178 412.739 214.178C412.739 214.178 393.704 230.248 370.734 244.065Z" fill="url(#paint40_linear_765_60)"/>
<path opacity="0.62" d="M370.734 244.065C347.765 257.847 299.486 299.263 299.486 299.263C299.486 299.263 301.223 303.219 304.13 309.143L303.97 309.249C297.111 296.372 286.512 282.094 286.512 282.094C269.463 273.456 247.893 286.883 247.893 286.883L250.392 302.048C242.523 299.104 232.172 292.186 232.172 292.186L229.496 267.212L234.246 264.215C237.968 266.928 246.776 272.338 256.631 271.505C269.711 270.352 260.636 262.76 260.636 262.76C260.636 262.76 264.695 261.146 268.949 259.514C273.22 257.9 285.378 256.552 301.117 247.985C302.676 247.134 304.342 246.14 306.115 245.023C305.406 251.887 304.112 275.921 322.456 269.837C343.795 262.743 412.757 214.143 412.757 214.143C412.757 214.143 393.704 230.248 370.734 244.065Z" fill="url(#paint41_linear_765_60)"/>
<path d="M230.701 259.531C230.701 259.531 227.6 260.986 225.455 264.391C225.455 264.391 233.165 292.203 250.392 302.065C250.392 302.065 253.582 278.226 255.479 274.466C257.198 271.043 259.697 271.043 259.697 271.043C259.697 271.043 256.046 267.07 252.359 267.815C252.359 267.797 239.315 269.233 230.701 259.531Z" fill="url(#paint42_linear_765_60)"/>
<path opacity="0.62" d="M149.12 343.943C133.346 348.076 114.524 357.707 105.786 364.838C111.263 358.647 118.813 351.34 127.639 345.717C146.462 333.744 202.361 319.111 202.361 319.111C202.361 319.111 218.224 299.05 216.398 280.799L226.146 308.469C226.146 308.469 232.793 318.1 237.897 330.534C242.913 342.755 231.552 383.497 231.197 384.845C232.314 384.083 269.321 359.02 299.894 360.474C299.894 360.474 278.005 364.696 259.697 373.458C241.388 382.202 226.642 395.47 219.872 400.152C219.872 400.152 227.245 384.384 227.564 361.361C227.901 338.374 222.991 329.842 222.991 329.842C217.409 326.206 169.148 338.693 149.12 343.943Z" fill="url(#paint43_linear_765_60)"/>
<path d="M262.816 269.624C262.816 269.624 264.607 267.39 266.662 267.319C268.718 267.23 280.965 271.753 286.53 282.111C286.53 282.111 280.611 264.445 263.543 257.599L258.049 258.485C258.049 258.485 260.406 263.15 261.647 265.527C262.87 267.886 262.816 269.624 262.816 269.624Z" fill="url(#paint44_linear_765_60)"/>
<path d="M210.283 272.32C210.283 272.32 216.097 267.247 216.416 280.78C216.735 294.332 216.735 322.41 179.64 352.723C179.64 352.723 171.841 373.174 186.747 377.448C186.747 377.448 211.524 353.467 225.632 319.288C239.74 285.108 227.333 261.607 227.333 261.607C227.333 261.607 210.39 256.214 210.283 272.32Z" fill="url(#paint45_linear_765_60)"/>
<path d="M266.804 259.088C266.804 259.088 274.513 253.341 284.031 255.345C284.031 255.345 313.434 277.41 310.811 322.126C310.811 322.126 299.486 301.036 293.229 288.532C286.973 276.027 276.286 266.183 276.286 266.183C276.286 266.183 272.28 261.713 266.804 259.088Z" fill="url(#paint46_linear_765_60)"/>
<path d="M288.887 206.764C288.887 206.764 286.707 209.566 286.53 218.861C286.459 223.472 286.743 229.006 285.75 234.026C284.758 239.152 282.472 243.728 277.172 246.194C268.878 250.06 253.051 244.225 242.665 231.685L242.611 231.614C239.882 228.315 237.543 224.572 235.806 220.404L236.639 218.275C236.639 218.275 242.842 219.606 247.379 218.275C251.863 216.963 273.698 203.341 288.887 206.764Z" fill="#9F3E8B"/>
<path d="M285.733 234.026C284.74 239.152 282.454 243.728 277.154 246.193C268.86 250.06 253.033 244.224 242.647 231.684L242.594 231.613C242.594 231.613 256.294 224.98 269.108 226.807C278.431 228.119 283.606 232.004 285.733 234.026Z" fill="url(#paint47_linear_765_60)"/>
<path d="M253.742 215.384C253.742 215.384 265.174 220.421 274.691 217.796C284.209 215.171 284.368 210.4 284.368 209.424C284.368 208.431 283.057 206.231 283.057 206.231C283.057 206.231 270.863 206.231 253.742 215.384Z" fill="#FFEBED"/>
<path d="M264.961 246.513C264.961 246.513 268.293 241.919 273.858 239.294C279.441 236.669 282.649 237.893 282.879 238.389C283.128 238.886 283.252 240.766 283.252 240.766C283.252 240.766 280.77 245.662 275.241 246.868C269.729 248.092 264.961 246.513 264.961 246.513Z" fill="#FFEBED"/>
<path d="M239.12 226.806C239.12 226.806 245.997 238.974 258.049 246.211C270.101 253.447 283.322 248.109 285.733 241.617C288.143 235.125 286.477 224.217 286.53 220.758C286.53 220.758 285.946 232.943 284.758 237.697C283.571 242.45 278.324 248.02 267.814 246.885C257.287 245.732 246.883 236.633 239.12 226.806Z" fill="url(#paint48_linear_765_60)"/>
<path d="M247.344 218.257C247.344 218.257 258.102 209.672 270.739 206.213C283.393 202.754 288.87 206.763 288.87 206.763C288.87 206.763 281.603 205.557 269.055 208.909C256.507 212.262 250.977 217.707 247.344 218.257Z" fill="url(#paint49_linear_765_60)"/>
<path d="M233.52 221.379C233.52 221.379 236.302 216.874 242.275 215.136C242.275 215.136 242.505 217.122 241.212 218.257C239.935 219.41 235.327 219.907 233.52 221.379Z" fill="url(#paint50_linear_765_60)"/>
<path d="M191.55 187.005C194.244 195.323 202.982 199.953 211.064 197.328C219.128 194.703 223.488 185.834 220.794 177.498C218.1 169.179 209.362 164.549 201.281 167.175C193.199 169.8 188.856 178.668 191.55 187.005Z" fill="url(#paint51_radial_765_60)"/>
<path d="M196.052 185.532C197.931 191.297 203.974 194.507 209.557 192.681C215.14 190.871 218.153 184.717 216.292 178.952C214.414 173.187 208.37 169.977 202.787 171.804C197.204 173.631 194.191 179.768 196.052 185.532Z" fill="url(#paint52_linear_765_60)"/>
<path d="M277.119 161.232C278.377 169.391 283.623 175.351 288.816 174.553C294.009 173.737 297.2 166.482 295.941 158.323C294.683 150.164 289.437 144.204 284.244 145.002C279.033 145.801 275.843 153.073 277.119 161.232Z" fill="url(#paint53_radial_765_60)"/>
<path d="M277.297 161.533C278.254 167.688 282.206 172.176 286.105 171.555C290.022 170.952 292.415 165.471 291.475 159.316C290.518 153.161 286.566 148.674 282.667 149.295C278.732 149.898 276.34 155.379 277.297 161.533Z" fill="url(#paint54_linear_765_60)"/>
<path d="M223.31 175.102C223.31 177 221.768 178.543 219.872 178.543C217.976 178.543 216.434 177 216.434 175.102C216.434 173.204 217.976 171.644 219.872 171.644C221.768 171.661 223.31 173.204 223.31 175.102Z" fill="white"/>
<path d="M297.98 156.159C297.98 157.561 296.845 158.678 295.463 158.678C294.063 158.678 292.946 157.543 292.946 156.159C292.946 154.758 294.081 153.641 295.463 153.641C296.845 153.641 297.98 154.776 297.98 156.159Z" fill="white"/>
<path d="M177.602 234.044C177.602 234.044 171.346 224.678 157.557 224.182C143.768 223.685 138.345 230.337 138.345 230.337C138.345 230.337 149.67 225.902 159.772 227.871C159.772 227.871 161.297 238.602 163.991 243.214C166.667 247.825 172.835 247.364 172.835 247.364C172.835 247.364 168.404 242.256 169.875 236.917C171.364 231.578 177.602 234.044 177.602 234.044Z" fill="url(#paint55_linear_765_60)"/>
<path opacity="0.5" d="M272.086 98.4782C272.068 98.4959 272.033 98.4959 272.015 98.5314C271.802 98.6556 271.625 98.762 271.412 98.8684C270.65 99.2764 269.977 99.6311 269.463 99.8794C269.144 100.039 268.842 100.163 268.523 100.287C268.417 100.358 268.293 100.394 268.151 100.447C280.894 92.0751 273.043 80.2621 273.043 80.2621C273.043 80.2621 264.677 90.6206 232.651 89.1307C200.66 87.6408 174.536 88.6341 158.283 107.365C142.031 126.095 146.462 137.926 146.462 137.926C146.462 137.926 155.359 149.756 160.268 167.494C165.178 185.231 163.99 200.006 163.99 200.006L169.626 212.546C155.324 196.991 127.764 180.779 124.325 166.004C123.563 162.722 123.421 159.21 123.67 155.734C124.059 158.288 124.857 160.86 126.293 163.379C134.658 178.331 151.743 185.834 151.743 185.834C151.743 185.834 139.337 163.467 138.362 150.076C137.37 136.702 141.925 121.82 141.925 121.82C141.925 121.82 138.362 140.125 141.552 151.211C144.636 161.906 157.025 179.218 157.947 180.477C157.628 178.987 152.47 155.095 147.703 144.577C142.758 133.722 147.703 121.891 146.71 118.699C145.718 115.506 138.345 117.315 138.345 117.315V117.297C146.94 105.431 152.878 89.1307 152.878 89.1307C156.068 81.4328 157.397 72.0852 174.766 55.0043C170.973 59.1194 165.001 66.9415 162.395 77.7966C160.215 86.949 155.448 96.9883 151.637 104.119C159.542 91.5607 175.085 70.4002 193.925 63.7665C220.564 54.4013 244.118 42.0207 245.412 41.3467C244.42 42.1271 221.663 59.0839 216.399 65.9659C210.993 73.0963 243.427 65.3451 264.146 69.1054C282.986 72.5464 283.89 90.727 272.086 98.4782Z" fill="url(#paint56_linear_765_60)"/>
<path d="M163.99 101.866C163.99 101.866 172.834 77.7788 185.879 73.8766C202.379 68.9457 211.152 93.2634 196.708 106.407C196.708 106.407 198.179 99.4537 194.9 93.2102C191.621 86.949 171.151 94.6114 163.99 101.866Z" fill="url(#paint57_linear_765_60)"/>
<path opacity="0.5" d="M284.882 47.2705C284.882 47.2705 272.015 40.8496 254.876 44.0601C254.876 44.0601 287.044 46.5787 292.361 63.8016C292.361 63.7838 290.801 52.9464 284.882 47.2705Z" fill="url(#paint58_linear_765_60)"/>
<path opacity="0.94" d="M106.035 288.514H131.946L162.537 295.467L162.502 282.093L159.79 289.986C159.79 289.986 124.485 270.298 115.215 263.859C115.215 263.859 106.602 271.256 102.419 276.435L106.035 288.514Z" fill="url(#paint59_linear_765_60)"/>
<path d="M84.6426 331.332C84.6426 331.332 91.9624 346.337 93.0967 361.662L97.4744 359.906C97.4744 359.906 99.4417 338.125 89.357 329.824C89.357 329.824 87.3188 329.505 84.6426 331.332Z" fill="url(#paint60_linear_765_60)"/>
<path d="M28.2993 391.266C28.2993 391.266 29.6109 384.703 31.5782 381.404C31.5782 381.404 27.0764 385.413 26.332 390.06C26.332 390.06 27.0055 391.071 28.2993 391.266Z" fill="url(#paint61_linear_765_60)"/>
<path d="M36.6644 406.875C36.6644 406.875 35.8491 400.968 36.6644 396.037C36.6644 396.037 32.9247 401.642 34.1299 406.236C34.1476 406.218 34.0413 407.034 36.6644 406.875Z" fill="url(#paint62_linear_765_60)"/>
<path d="M47.1747 416.062C47.1747 416.062 45.3669 411.788 45.3669 408.666C45.3669 408.666 44.3744 413.012 45.3669 416.346C45.3669 416.346 45.7036 417.056 47.1747 416.062Z" fill="url(#paint63_linear_765_60)"/>
<path opacity="0.62" d="M95.9502 377.395C96.2338 376.987 97.8998 374.504 100.7 370.921C98.1834 376.207 96.1983 377.324 95.9502 377.43C95.9502 377.43 95.9502 377.43 95.9502 377.395Z" fill="url(#paint64_linear_765_60)"/>
<path opacity="0.62" d="M215.353 403.256C216.983 401.695 219.376 400.401 219.819 400.152C218.1 401.358 216.629 402.369 215.353 403.256Z" fill="url(#paint65_linear_765_60)"/>
<path opacity="0.62" d="M362.511 394.121C363.504 388.764 341.509 370.885 291.316 381.741C241.123 392.56 218.384 409.34 218.384 409.34L217.055 412.958C217.055 412.958 215.991 411.575 215.052 409.907C221.255 404.515 238.624 392.064 276.003 381.404C321.251 368.509 352.834 376.384 360.863 384.259C361.589 384.933 362.103 385.643 362.44 386.317C362.848 387.168 363.202 388.002 363.486 388.818C363.167 393.199 362.511 394.121 362.511 394.121Z" fill="url(#paint66_linear_765_60)"/>
<path d="M403.859 179.661L407.528 176.007C407.528 176.007 417.843 183.137 421.37 190.942L411.445 201.655C411.445 201.637 409.726 186.223 403.859 179.661Z" fill="url(#paint67_linear_765_60)"/>
<path opacity="0.62" d="M290.287 409.34L284.386 381.404C284.386 381.404 279.955 427.734 274.053 444.496C274.035 444.496 285.857 425.925 290.287 409.34Z" fill="url(#paint68_linear_765_60)"/>
<path opacity="0.97" d="M215.353 416.595C215.353 416.595 297.66 383.87 332.381 400.135L323.891 378.353C323.891 378.353 277.154 376.154 218.383 409.34C218.401 409.34 219.713 412.356 215.353 416.595Z" fill="url(#paint69_linear_765_60)"/>
<path opacity="0.97" d="M395.335 710.536C394.041 712.079 389.433 715.236 376.955 710.536C364.478 705.835 357.903 701.436 344.38 695.193C330.839 688.949 326.054 681.713 326.054 681.713C327.684 671.549 332.806 663.408 332.806 663.408C338.035 665.182 344.38 661.333 344.38 661.333C350.548 654.752 368.732 647.232 370.362 649.857C371.993 652.482 367.084 663.408 367.084 663.408C367.084 663.408 353.773 665.962 341.969 679.425C341.969 679.425 365.435 703.512 380.358 707.024C387.43 708.691 392.233 709.542 395.335 710.021C395.423 710.27 395.423 710.447 395.335 710.536Z" fill="url(#paint70_linear_765_60)"/>
</g>
<defs>
<filter id="filter0_d_765_60" x="0" y="0" width="536" height="721" filterUnits="userSpaceOnUse" color-interpolation-filters="sRGB">
<feFlood flood-opacity="0" result="BackgroundImageFix"/>
<feColorMatrix in="SourceAlpha" type="matrix" values="0 0 0 0 0 0 0 0 0 0 0 0 0 0 0 0 0 0 127 0" result="hardAlpha"/>
<feOffset dy="4"/>
<feGaussianBlur stdDeviation="2"/>
<feComposite in2="hardAlpha" operator="out"/>
<feColorMatrix type="matrix" values="0 0 0 0 0 0 0 0 0 0 0 0 0 0 0 0 0 0 0.25 0"/>
<feBlend mode="normal" in2="BackgroundImageFix" result="effect1_dropShadow_765_60"/>
<feBlend mode="normal" in="SourceGraphic" in2="effect1_dropShadow_765_60" result="shape"/>
</filter>
<linearGradient id="paint0_linear_765_60" x1="416.747" y1="676.89" x2="297.635" y2="244.742" gradientUnits="userSpaceOnUse">
<stop stop-color="#1C257B"/>
<stop offset="1" stop-color="#482C83"/>
</linearGradient>
<linearGradient id="paint1_linear_765_60" x1="455.836" y1="76.3644" x2="455.834" y2="190.305" gradientUnits="userSpaceOnUse">
<stop stop-color="#D93DE3"/>
<stop offset="1" stop-color="#FF6DBA"/>
</linearGradient>
<linearGradient id="paint2_linear_765_60" x1="478.61" y1="198.865" x2="475.182" y2="186.426" gradientUnits="userSpaceOnUse">
<stop stop-color="#A242EA"/>
<stop offset="1" stop-color="#D3119C"/>
</linearGradient>
<linearGradient id="paint3_linear_765_60" x1="432.771" y1="158.589" x2="486.64" y2="104.764" gradientUnits="userSpaceOnUse">
<stop stop-color="#A242EA"/>
<stop offset="1" stop-color="#D3119C"/>
</linearGradient>
<linearGradient id="paint4_linear_765_60" x1="490.747" y1="183.182" x2="473.654" y2="121.164" gradientUnits="userSpaceOnUse">
<stop stop-color="#B9ACF4"/>
<stop offset="1" stop-color="#E1D1F5"/>
</linearGradient>
<linearGradient id="paint5_linear_765_60" x1="202.136" y1="710.522" x2="202.136" y2="637.445" gradientUnits="userSpaceOnUse">
<stop stop-color="#CCB8FF"/>
<stop offset="1" stop-color="#AF8BC2"/>
</linearGradient>
<linearGradient id="paint6_linear_765_60" x1="344.394" y1="667.584" x2="344.394" y2="638.67" gradientUnits="userSpaceOnUse">
<stop stop-color="#FF817F"/>
<stop offset="1" stop-color="#CF6074"/>
</linearGradient>
<linearGradient id="paint7_linear_765_60" x1="269.695" y1="665.945" x2="269.695" y2="418.213" gradientUnits="userSpaceOnUse">
<stop stop-color="#8642A0"/>
<stop offset="1" stop-color="#6456C0"/>
</linearGradient>
<linearGradient id="paint8_linear_765_60" x1="202.162" y1="648.762" x2="202.162" y2="624.561" gradientUnits="userSpaceOnUse">
<stop stop-color="#CCB8FF"/>
<stop offset="1" stop-color="#AF8BC2"/>
</linearGradient>
<linearGradient id="paint9_linear_765_60" x1="272.644" y1="665.945" x2="272.644" y2="418.214" gradientUnits="userSpaceOnUse">
<stop stop-color="#CCB8FF"/>
<stop offset="1" stop-color="#AF8BC2"/>
</linearGradient>
<linearGradient id="paint10_linear_765_60" x1="151.741" y1="330.527" x2="151.741" y2="240.467" gradientUnits="userSpaceOnUse">
<stop offset="0.0168" stop-color="#51276F"/>
<stop offset="0.9888" stop-color="#563886"/>
</linearGradient>
<linearGradient id="paint11_linear_765_60" x1="150.921" y1="424.529" x2="150.921" y2="245.38" gradientUnits="userSpaceOnUse">
<stop stop-color="#8642A0"/>
<stop offset="1" stop-color="#6456C0"/>
</linearGradient>
<linearGradient id="paint12_linear_765_60" x1="165.467" y1="287.557" x2="120.83" y2="182.947" gradientUnits="userSpaceOnUse">
<stop stop-color="#6F63D8"/>
<stop offset="1" stop-color="#7689E8"/>
</linearGradient>
<linearGradient id="paint13_linear_765_60" x1="135.767" y1="289.982" x2="135.767" y2="203.488" gradientUnits="userSpaceOnUse">
<stop stop-color="#CCB8FF"/>
<stop offset="1" stop-color="#AF8BC2"/>
</linearGradient>
<linearGradient id="paint14_linear_765_60" x1="210.695" y1="424.529" x2="210.695" y2="230.348" gradientUnits="userSpaceOnUse">
<stop offset="0.0168" stop-color="#51276F"/>
<stop offset="0.9888" stop-color="#563886"/>
</linearGradient>
<linearGradient id="paint15_linear_765_60" x1="178.17" y1="330.528" x2="178.17" y2="243.233" gradientUnits="userSpaceOnUse">
<stop stop-color="#8642A0"/>
<stop offset="1" stop-color="#6456C0"/>
</linearGradient>
<linearGradient id="paint16_linear_765_60" x1="315.807" y1="432.668" x2="315.807" y2="368.235" gradientUnits="userSpaceOnUse">
<stop stop-color="#B31A8F"/>
<stop offset="1" stop-color="#92117E"/>
</linearGradient>
<linearGradient id="paint17_linear_765_60" x1="27.6827" y1="368.262" x2="27.6827" y2="343.261" gradientUnits="userSpaceOnUse">
<stop stop-color="#B31A8F"/>
<stop offset="1" stop-color="#FE117E"/>
</linearGradient>
<linearGradient id="paint18_linear_765_60" x1="80.8214" y1="443.907" x2="80.8214" y2="423.05" gradientUnits="userSpaceOnUse">
<stop stop-color="#B9ACF4"/>
<stop offset="1" stop-color="#E1D1F5"/>
</linearGradient>
<linearGradient id="paint19_linear_765_60" x1="55.5981" y1="436.603" x2="55.5981" y2="358.927" gradientUnits="userSpaceOnUse">
<stop stop-color="#5142D8"/>
<stop offset="1" stop-color="#3989E8"/>
</linearGradient>
<linearGradient id="paint20_linear_765_60" x1="85.9387" y1="444.526" x2="85.9387" y2="437.944" gradientUnits="userSpaceOnUse">
<stop stop-color="#5142D8"/>
<stop offset="1" stop-color="#3989E8"/>
</linearGradient>
<linearGradient id="paint21_linear_765_60" x1="32.9121" y1="373.444" x2="32.9121" y2="352.735" gradientUnits="userSpaceOnUse">
<stop stop-color="#B9ACF4"/>
<stop offset="1" stop-color="#E1D1F5"/>
</linearGradient>
<linearGradient id="paint22_linear_765_60" x1="418.636" y1="203.487" x2="418.636" y2="125.352" gradientUnits="userSpaceOnUse">
<stop offset="0.016" stop-color="#FFC2A9"/>
<stop offset="1" stop-color="#FF9595"/>
</linearGradient>
<linearGradient id="paint23_linear_765_60" x1="93.109" y1="377.462" x2="93.109" y2="328.01" gradientUnits="userSpaceOnUse">
<stop stop-color="#B31A8F"/>
<stop offset="1" stop-color="#92117E"/>
</linearGradient>
<linearGradient id="paint24_linear_765_60" x1="63.3137" y1="420.684" x2="63.3137" y2="326.207" gradientUnits="userSpaceOnUse">
<stop offset="0.016" stop-color="#FFC2A9"/>
<stop offset="1" stop-color="#FF9595"/>
</linearGradient>
<linearGradient id="paint25_linear_765_60" x1="292.115" y1="432.716" x2="292.115" y2="396.683" gradientUnits="userSpaceOnUse">
<stop stop-color="#FF817F"/>
<stop offset="1" stop-color="#CF6074"/>
</linearGradient>
<linearGradient id="paint26_linear_765_60" x1="247.895" y1="274.808" x2="247.895" y2="250.753" gradientUnits="userSpaceOnUse">
<stop stop-color="#FF817F"/>
<stop offset="1" stop-color="#CF6074"/>
</linearGradient>
<linearGradient id="paint27_linear_765_60" x1="290.687" y1="113.789" x2="290.687" y2="61.3164" gradientUnits="userSpaceOnUse">
<stop stop-color="#2E33A0"/>
<stop offset="1" stop-color="#0665A5"/>
</linearGradient>
<linearGradient id="paint28_linear_765_60" x1="163.998" y1="254.29" x2="163.998" y2="203.98" gradientUnits="userSpaceOnUse">
<stop offset="0.016" stop-color="#FFAC8B"/>
<stop offset="1" stop-color="#FF9595"/>
</linearGradient>
<linearGradient id="paint29_linear_765_60" x1="229.503" y1="259.522" x2="229.503" y2="61.3243" gradientUnits="userSpaceOnUse">
<stop offset="0.016" stop-color="#FFC2A9"/>
<stop offset="1" stop-color="#FF9595"/>
</linearGradient>
<linearGradient id="paint30_linear_765_60" x1="226.165" y1="258.894" x2="226.165" y2="61.3244" gradientUnits="userSpaceOnUse">
<stop offset="0.016" stop-color="#FFA58B"/>
<stop offset="1" stop-color="#FF898E"/>
</linearGradient>
<linearGradient id="paint31_linear_765_60" x1="250.883" y1="22.7639" x2="250.883" y2="22.5612" gradientUnits="userSpaceOnUse">
<stop stop-color="#5142D8"/>
<stop offset="1" stop-color="#3989E8"/>
</linearGradient>
<linearGradient id="paint32_linear_765_60" x1="202.383" y1="212.568" x2="202.383" y2="22.7637" gradientUnits="userSpaceOnUse">
<stop stop-color="#5142D8"/>
<stop offset="1" stop-color="#3989E8"/>
</linearGradient>
<linearGradient id="paint33_linear_765_60" x1="177.186" y1="128.246" x2="216.422" y2="128.246" gradientUnits="userSpaceOnUse">
<stop stop-color="#0665A5"/>
<stop offset="1" stop-color="#BD33A0"/>
</linearGradient>
<linearGradient id="paint34_linear_765_60" x1="270.746" y1="119.851" x2="300.849" y2="119.851" gradientUnits="userSpaceOnUse">
<stop stop-color="#BD33A0"/>
<stop offset="1" stop-color="#0665A5"/>
</linearGradient>
<linearGradient id="paint35_linear_765_60" x1="210.289" y1="204.179" x2="210.289" y2="152.719" gradientUnits="userSpaceOnUse">
<stop stop-color="#D0C7F8"/>
<stop offset="1" stop-color="white"/>
</linearGradient>
<linearGradient id="paint36_linear_765_60" x1="291.324" y1="178.559" x2="291.324" y2="135.146" gradientUnits="userSpaceOnUse">
<stop stop-color="#D0C7F8"/>
<stop offset="1" stop-color="white"/>
</linearGradient>
<linearGradient id="paint37_linear_765_60" x1="274.283" y1="444.489" x2="274.283" y2="358.927" gradientUnits="userSpaceOnUse">
<stop stop-color="#B9ACF4"/>
<stop offset="1" stop-color="#E1D1F5"/>
</linearGradient>
<linearGradient id="paint38_linear_765_60" x1="275.574" y1="200.186" x2="266.277" y2="178.736" gradientUnits="userSpaceOnUse">
<stop stop-color="#FF8883"/>
<stop offset="1" stop-color="#FFB1A4"/>
</linearGradient>
<linearGradient id="paint39_linear_765_60" x1="275.557" y1="200.193" x2="270.317" y2="188.102" gradientUnits="userSpaceOnUse">
<stop stop-color="#FF8883"/>
<stop offset="1" stop-color="#E8868D"/>
</linearGradient>
<linearGradient id="paint40_linear_765_60" x1="247.352" y1="412.96" x2="247.352" y2="175.999" gradientUnits="userSpaceOnUse">
<stop stop-color="#B31A8F"/>
<stop offset="1" stop-color="#FE117E"/>
</linearGradient>
<linearGradient id="paint41_linear_765_60" x1="321.124" y1="309.253" x2="321.124" y2="214.155" gradientUnits="userSpaceOnUse">
<stop stop-color="#CCB8FF"/>
<stop offset="1" stop-color="#AF8BC2"/>
</linearGradient>
<linearGradient id="paint42_linear_765_60" x1="242.582" y1="302.056" x2="242.582" y2="259.523" gradientUnits="userSpaceOnUse">
<stop stop-color="#B9ACF4"/>
<stop offset="1" stop-color="#E1D1F5"/>
</linearGradient>
<linearGradient id="paint43_linear_765_60" x1="202.851" y1="400.136" x2="202.851" y2="280.796" gradientUnits="userSpaceOnUse">
<stop stop-color="#CCB8FF"/>
<stop offset="1" stop-color="#AF8BC2"/>
</linearGradient>
<linearGradient id="paint44_linear_765_60" x1="272.287" y1="282.097" x2="272.287" y2="257.581" gradientUnits="userSpaceOnUse">
<stop stop-color="#B9ACF4"/>
<stop offset="1" stop-color="#E1D1F5"/>
</linearGradient>
<linearGradient id="paint45_linear_765_60" x1="204.99" y1="377.462" x2="204.99" y2="260.757" gradientUnits="userSpaceOnUse">
<stop stop-color="#8642A0"/>
<stop offset="1" stop-color="#6456C0"/>
</linearGradient>
<linearGradient id="paint46_linear_765_60" x1="288.894" y1="322.123" x2="288.894" y2="254.92" gradientUnits="userSpaceOnUse">
<stop stop-color="#8642A0"/>
<stop offset="1" stop-color="#6456C0"/>
</linearGradient>
<linearGradient id="paint47_linear_765_60" x1="264.164" y1="247.384" x2="264.164" y2="226.48" gradientUnits="userSpaceOnUse">
<stop stop-color="#CF6074"/>
<stop offset="1" stop-color="#E04A7F"/>
</linearGradient>
<linearGradient id="paint48_linear_765_60" x1="263.084" y1="249.664" x2="263.084" y2="220.737" gradientUnits="userSpaceOnUse">
<stop stop-color="#FFB1A4"/>
<stop offset="1" stop-color="#FF8883"/>
</linearGradient>
<linearGradient id="paint49_linear_765_60" x1="268.115" y1="218.264" x2="268.115" y2="204.805" gradientUnits="userSpaceOnUse">
<stop stop-color="#FF8883"/>
<stop offset="1" stop-color="#E8868D"/>
</linearGradient>
<linearGradient id="paint50_linear_765_60" x1="237.91" y1="221.386" x2="237.91" y2="215.144" gradientUnits="userSpaceOnUse">
<stop stop-color="#FF8883"/>
<stop offset="1" stop-color="#E8868D"/>
</linearGradient>
<radialGradient id="paint51_radial_765_60" cx="0" cy="0" r="1" gradientUnits="userSpaceOnUse" gradientTransform="translate(207.699 188.508) rotate(161.998) scale(15.0458 15.5185)">
<stop stop-color="#CF95FF"/>
<stop offset="1" stop-color="#8161FF"/>
</radialGradient>
<linearGradient id="paint52_linear_765_60" x1="209.559" y1="192.691" x2="202.776" y2="171.816" gradientUnits="userSpaceOnUse">
<stop stop-color="#8642A0"/>
<stop offset="1" stop-color="#4E37B7"/>
</linearGradient>
<radialGradient id="paint53_radial_765_60" cx="0" cy="0" r="1" gradientUnits="userSpaceOnUse" gradientTransform="translate(287.163 165.803) rotate(171.166) scale(9.32278 14.639)">
<stop stop-color="#CF95FF"/>
<stop offset="1" stop-color="#8161FF"/>
</radialGradient>
<linearGradient id="paint54_linear_765_60" x1="286.106" y1="171.555" x2="282.646" y2="149.292" gradientUnits="userSpaceOnUse">
<stop stop-color="#8642A0"/>
<stop offset="1" stop-color="#4E37B7"/>
</linearGradient>
<linearGradient id="paint55_linear_765_60" x1="138.363" y1="235.779" x2="177.611" y2="235.779" gradientUnits="userSpaceOnUse">
<stop stop-color="#FF817F"/>
<stop offset="1" stop-color="#CF6074"/>
</linearGradient>
<linearGradient id="paint56_linear_765_60" x1="201.708" y1="212.568" x2="201.708" y2="41.3621" gradientUnits="userSpaceOnUse">
<stop stop-color="#9D68C2"/>
<stop offset="1" stop-color="#CCEDFF"/>
</linearGradient>
<linearGradient id="paint57_linear_765_60" x1="184.008" y1="106.397" x2="184.008" y2="73.22" gradientUnits="userSpaceOnUse">
<stop stop-color="#5142D8"/>
<stop offset="1" stop-color="#3989E8"/>
</linearGradient>
<linearGradient id="paint58_linear_765_60" x1="273.615" y1="63.7911" x2="273.615" y2="43.1562" gradientUnits="userSpaceOnUse">
<stop stop-color="#CCEDFF"/>
<stop offset="1" stop-color="#9D68C2"/>
</linearGradient>
<linearGradient id="paint59_linear_765_60" x1="132.472" y1="295.478" x2="132.472" y2="263.861" gradientUnits="userSpaceOnUse">
<stop stop-color="#CCB8FF"/>
<stop offset="1" stop-color="#AF8BC2"/>
</linearGradient>
<linearGradient id="paint60_linear_765_60" x1="91.1444" y1="361.65" x2="91.1444" y2="329.799" gradientUnits="userSpaceOnUse">
<stop stop-color="#FF817F"/>
<stop offset="1" stop-color="#CF6074"/>
</linearGradient>
<linearGradient id="paint61_linear_765_60" x1="28.9567" y1="391.262" x2="28.9567" y2="381.405" gradientUnits="userSpaceOnUse">
<stop stop-color="#FF817F"/>
<stop offset="1" stop-color="#CF6074"/>
</linearGradient>
<linearGradient id="paint62_linear_765_60" x1="35.2832" y1="406.89" x2="35.2832" y2="396.026" gradientUnits="userSpaceOnUse">
<stop stop-color="#FF817F"/>
<stop offset="1" stop-color="#CF6074"/>
</linearGradient>
<linearGradient id="paint63_linear_765_60" x1="46.0532" y1="416.595" x2="46.0532" y2="408.675" gradientUnits="userSpaceOnUse">
<stop stop-color="#FF817F"/>
<stop offset="1" stop-color="#CF6074"/>
</linearGradient>
<linearGradient id="paint64_linear_765_60" x1="98.328" y1="377.428" x2="98.328" y2="370.925" gradientUnits="userSpaceOnUse">
<stop stop-color="#CCB8FF"/>
<stop offset="1" stop-color="#AF8BC2"/>
</linearGradient>
<linearGradient id="paint65_linear_765_60" x1="217.588" y1="403.257" x2="217.588" y2="400.162" gradientUnits="userSpaceOnUse">
<stop stop-color="#CCB8FF"/>
<stop offset="1" stop-color="#AF8BC2"/>
</linearGradient>
<linearGradient id="paint66_linear_765_60" x1="289.285" y1="412.959" x2="289.285" y2="374.561" gradientUnits="userSpaceOnUse">
<stop stop-color="#CCB8FF"/>
<stop offset="1" stop-color="#AF8BC2"/>
</linearGradient>
<linearGradient id="paint67_linear_765_60" x1="412.61" y1="201.645" x2="412.61" y2="175.998" gradientUnits="userSpaceOnUse">
<stop stop-color="#CF6074"/>
<stop offset="1" stop-color="#FF817F"/>
</linearGradient>
<linearGradient id="paint68_linear_765_60" x1="282.162" y1="444.489" x2="282.162" y2="381.405" gradientUnits="userSpaceOnUse">
<stop stop-color="#CCB8FF"/>
<stop offset="1" stop-color="#AF8BC2"/>
</linearGradient>
<linearGradient id="paint69_linear_765_60" x1="273.868" y1="416.595" x2="273.868" y2="378.324" gradientUnits="userSpaceOnUse">
<stop stop-color="#CCB8FF"/>
<stop offset="1" stop-color="#AF8BC2"/>
</linearGradient>
<linearGradient id="paint70_linear_765_60" x1="360.739" y1="713.005" x2="360.739" y2="649.307" gradientUnits="userSpaceOnUse">
<stop stop-color="#CCB8FF"/>
<stop offset="1" stop-color="#AF8BC2"/>
</linearGradient>
<clipPath id="clip0_765_60">
<rect width="528" height="713" fill="white" transform="translate(4)"/>
</clipPath>
</defs>
</svg>
